<svg width="23" height="23" viewBox="0 0 23 23" fill="none" xmlns="http://www.w3.org/2000/svg">
<path d="M10.0661 0L8.63217 3.41272C8.34539 3.49875 8.08728 3.64214 7.82918 3.78554L4.41646 2.35162L2.35162 4.41646L3.78554 7.82918C3.64214 8.11596 3.52743 8.34539 3.41272 8.63217L0 10.0661V12.9339L3.41272 14.3678C3.52743 14.6546 3.64214 14.884 3.78554 15.1708L2.35162 18.5835L4.41646 20.6484L7.82918 19.2145C8.08728 19.3292 8.34539 19.4726 8.63217 19.5873L10.0661 23H12.9339L14.3678 19.5873C14.6259 19.4726 14.9127 19.3579 15.1708 19.2145L18.5835 20.6484L20.6484 18.5835L19.2145 15.1708C19.3292 14.9127 19.4726 14.6259 19.5873 14.3678L23 12.9339V10.0661L19.5873 8.63217C19.5012 8.37406 19.3579 8.08728 19.2145 7.82918L20.6484 4.41646L18.5835 2.35162L15.1708 3.78554C14.9127 3.67082 14.6259 3.52743 14.3678 3.41272L12.9339 0L10.0661 0ZM11.5 7.16958C13.8803 7.16958 15.8017 9.09102 15.8017 11.4713C15.8017 13.8516 13.8803 15.7731 11.5 15.7731C9.1197 15.7731 7.19825 13.8516 7.19825 11.4713C7.19825 9.09102 9.1197 7.16958 11.5 7.16958Z" fill="currentColor"/>
</svg>
