<?xml version="1.0" encoding="UTF-8"?>
<svg version="1.1" xmlns="http://www.w3.org/2000/svg" width="2000" height="779">
<path d="M0 0 C3.93401837 0.23637432 5.83909968 2.50505607 8.484375 5.2265625 C9.33773438 6.09410156 10.19109375 6.96164063 11.0703125 7.85546875 C11.95460938 8.76941406 12.83890625 9.68335938 13.75 10.625 C18.95278962 15.95901725 24.12906078 21.1956115 29.78955078 26.04296875 C34.31795432 30.05221138 38.61296498 34.31054524 42.91235352 38.56225586 C44.02332833 39.65646497 45.13966586 40.74525278 46.26098633 41.82885742 C47.89576677 43.40920041 49.51377343 45.00508138 51.12890625 46.60546875 C51.6339418 47.08783493 52.13897736 47.57020111 52.65931702 48.06718445 C55.98469877 51.41340714 55.98469877 51.41340714 56.05444336 54.0871582 C55 56 55 56 51 60 C64.365 60.495 64.365 60.495 78 61 C78 247.78 78 434.56 78 627 C69.09 627.33 60.18 627.66 51 628 C52.464375 629.588125 53.92875 631.17625 55.4375 632.8125 C59.73463306 637.50821996 63.7868761 642.3624739 67.78515625 647.31640625 C69.95632827 649.94708557 72.20241357 652.47942424 74.5 655 C77.52282421 658.31989486 80.42512161 661.69764112 83.25 665.1875 C88.46518515 671.62711993 93.91331752 677.85455403 99.35351562 684.10351562 C103.42017215 688.78764787 107.44425879 693.50847961 111.4765625 698.22216797 C113.08559189 700.09988463 114.69864051 701.97408981 116.3125 703.84765625 C116.85640381 704.47986084 117.40030762 705.11206543 117.96069336 705.76342773 C118.99959578 706.97080937 120.03941695 708.17740131 121.08032227 709.38305664 C123.49016196 712.18633955 125.83083758 715.00553336 128 718 C126.70735873 720.89874417 125.43512432 722.76602526 123.015625 724.8125 C122.41717773 725.32458008 121.81873047 725.83666016 121.20214844 726.36425781 C120.55793945 726.90405273 119.91373047 727.44384766 119.25 728 C118.24888184 728.85223145 118.24888184 728.85223145 117.22753906 729.72167969 C115.83873617 730.90356994 114.44775669 732.08290699 113.0546875 733.25976562 C111.1211651 734.89737823 109.19880669 736.54686627 107.28125 738.203125 C101.99269361 742.768999 96.67872422 747.28809849 91.25 751.6875 C86.79338236 755.3027503 82.51595994 759.07648494 78.2890625 762.95703125 C75.92682154 765.06531115 73.4886424 767.04338186 71 769 C66.71723843 767.42426697 64.31475594 764.16189519 61.5 760.75 C60.43121836 759.47767237 59.36220121 758.20554255 58.29296875 756.93359375 C57.74817871 756.28116699 57.20338867 755.62874023 56.64208984 754.95654297 C54.5596945 752.4753779 52.44570643 750.02250191 50.3293457 747.5703125 C46.25574137 742.84957353 42.23792483 738.09544627 38.3125 733.25 C34.75732096 728.86848205 31.03230463 724.68289319 27.234375 720.51171875 C24.99865467 717.99848768 22.86622318 715.42688521 20.75 712.8125 C15.53481485 706.37288007 10.08668248 700.14544597 4.64648438 693.89648438 C0.5682747 689.19904477 -3.46772568 684.46516497 -7.51171875 679.73828125 C-9.01672049 677.98047082 -10.52367703 676.22435554 -12.03125 674.46875 C-16.87350212 668.82867548 -21.70371617 663.17924197 -26.5 657.5 C-30.40049636 652.8819028 -34.31745073 648.27833984 -38.25 643.6875 C-38.75305664 643.09936523 -39.25611328 642.51123047 -39.77441406 641.90527344 C-43.09028286 638.0363941 -46.45470494 634.21627554 -49.890625 630.453125 C-51 629 -51 629 -51 627 C-194.88 627 -338.76 627 -487 627 C-487 440.22 -487 253.44 -487 61 C-273.0625 61.125 -273.0625 61.125 -205.44165039 61.24267578 C-185.48728926 61.22953054 -185.48728926 61.22953054 -165.53294373 61.20309448 C-156.62562988 61.19165119 -147.71887428 61.20755117 -138.81163025 61.24191284 C-128.54246192 61.28143464 -118.27397216 61.28646379 -108.00478652 61.24863081 C-102.74979349 61.23036155 -97.4961013 61.22774885 -92.24121296 61.26946664 C-87.48907839 61.3068971 -82.73933548 61.29833755 -77.98728943 61.25306511 C-76.2695792 61.24482845 -74.5516872 61.25349289 -72.83417404 61.28078437 C-63.44270465 61.58372682 -63.44270465 61.58372682 -55.09377754 57.85554481 C-52.8193501 55.34573404 -50.92902722 52.77866983 -49 50 C-47.50222778 48.4113725 -45.97767133 46.84719564 -44.41748047 45.31982422 C-43.63992401 44.54557098 -42.86236755 43.77131775 -42.06124878 42.97360229 C-41.25470856 42.17536041 -40.44816833 41.37711853 -39.6171875 40.5546875 C-38.32942917 39.2726091 -38.32942917 39.2726091 -37.01565552 37.96463013 C-34.30455158 35.26561157 -31.59020716 32.56989027 -28.875 29.875 C-25.28610505 26.31285458 -21.70064393 22.74730303 -18.1171875 19.1796875 C-17.30659882 18.37739716 -16.49601013 17.57510681 -15.66085815 16.74850464 C-11.40227625 12.50816196 -7.31216424 8.1908338 -3.40603638 3.62258911 C-2.32061388 2.36999369 -1.17199345 1.17199345 0 0 Z " fill="#FEFEFE" transform="translate(487,0)"/>
<path d="M0 0 C141.24 0 282.48 0 428 0 C416.36243087 13.57716399 403.93875829 26.15973143 391.25 38.75 C387.77307398 42.20015593 384.2996044 45.65373979 380.828125 49.109375 C380.0456842 49.88351746 379.26324341 50.65765991 378.45709229 51.45526123 C375.03040456 54.86675094 371.6896422 58.29706995 368.53613281 61.96386719 C364.45595274 66.70187251 360.03497518 71.07146566 355.59375 75.46875 C354.71021851 76.34849487 353.82668701 77.22823975 352.91638184 78.13464355 C349.6402768 81.39656945 346.3596502 84.65392564 343.07867432 87.91094971 C339.85169462 91.1148726 336.6286192 94.32269116 333.40625 97.53125 C332.56751343 98.36168823 331.72877686 99.19212646 330.86462402 100.04772949 C327.29527012 103.60230346 323.79816774 107.16544235 320.51367188 110.98632812 C316.37650239 115.79665 311.88090197 120.22504569 307.375 124.6875 C306.46927246 125.58944092 305.56354492 126.49138184 304.63037109 127.4206543 C301.27078694 130.76605444 297.90668738 134.10688392 294.54223633 137.4473877 C291.23365649 140.732918 287.92897519 144.02233791 284.625 147.3125 C283.76438965 148.16481201 282.9037793 149.01712402 282.01708984 149.89526367 C277.76916411 154.1260303 273.70875941 158.42829608 269.80151367 162.97363281 C266.24299206 166.97630654 262.39824294 170.70189817 258.59375 174.46875 C257.71021851 175.34849487 256.82668701 176.22823975 255.91638184 177.13464355 C252.6402768 180.39656945 249.3596502 183.65392564 246.07867432 186.91094971 C242.85169462 190.1148726 239.6286192 193.32269116 236.40625 196.53125 C235.56751343 197.36168823 234.72877686 198.19212646 233.86462402 199.04772949 C229.65370843 203.24120858 225.62957349 207.51028702 221.75543213 212.01525879 C218.48486056 215.7130595 214.97085156 219.17141475 211.4765625 222.65625 C210.68978119 223.44398804 209.90299988 224.23172607 209.09237671 225.04333496 C207.4448109 226.69157645 205.79600097 228.33857519 204.14599609 229.984375 C201.60787707 232.51708645 199.07520459 235.0551579 196.54296875 237.59375 C194.93782099 239.19823785 193.33236354 240.80241596 191.7265625 242.40625 C190.96622711 243.16860962 190.20589172 243.93096924 189.42251587 244.71643066 C188.37539932 245.75881897 188.37539932 245.75881897 187.30712891 246.82226562 C186.69092682 247.43767212 186.07472473 248.05307861 185.43984985 248.68713379 C184 250 184 250 183 250 C183 182.68 183 115.36 183 46 C157.92 46 132.84 46 107 46 C107 192.19 107 338.38 107 489 C132.08 489 157.16 489 183 489 C182.5359375 480.0796875 182.071875 471.159375 181.59375 461.96875 C181.38870922 456.22607803 181.19448784 450.48615204 181.046875 444.7421875 C180.81186364 435.67177079 180.53907536 426.61669519 179.98242188 417.55957031 C176.73318532 363.65984921 176.73318532 363.65984921 192.08203125 345.85546875 C201.27483009 335.67998006 211.82811329 326.91797219 223 319 C226.76495877 320.7452436 228.91161524 322.82189343 231.6875 325.9375 C232.12537842 326.42766602 232.56325684 326.91783203 233.0144043 327.42285156 C236.64172615 331.51561753 240.09451618 335.74253059 243.53125 339.99609375 C248.02290331 345.46141242 252.70453233 350.76384704 257.34912109 356.09912109 C264.25089085 364.04605682 271.06687286 372.06677899 277.8581543 380.1081543 C283.20486451 386.43447289 288.60347353 392.71618337 294 399 C300.31088314 406.34851068 306.6080438 413.70740317 312.85791016 421.10791016 C318.20478107 427.43424365 323.60339832 433.71609579 329 440 C335.31088314 447.34851068 341.6080438 454.70740317 347.85791016 462.10791016 C352.70396642 467.84168764 357.59313781 473.53823153 362.48388672 479.23388672 C365.48935434 482.73494192 368.49145815 486.23888345 371.49316406 489.74316406 C374.02685208 492.70051252 376.5634265 495.65529679 379.10546875 498.60546875 C383.69606553 503.93835322 388.25761398 509.28185945 392.6875 514.75 C396.24267904 519.13151795 399.96769537 523.31710681 403.765625 527.48828125 C406.00134533 530.00151232 408.13377682 532.57311479 410.25 535.1875 C413.95627051 539.76506919 417.76331339 544.24130921 421.625 548.6875 C422.18243896 549.32993652 422.73987793 549.97237305 423.31420898 550.63427734 C426.81007241 554.65433845 430.33637729 558.64498526 433.92578125 562.58203125 C435 564 435 564 435 566 C291.45 566 147.9 566 0 566 C0 379.22 0 192.44 0 0 Z " fill="#13BF24" transform="translate(0,61)"/>
<path d="M0 0 C9.9 0 19.8 0 30 0 C30 186.78 30 373.56 30 566 C1 566 1 566 -5.25 561.1875 C-6.565718 559.16628937 -7.81850049 557.10249023 -9 555 C-10.40484019 553.22367506 -11.84313374 551.4733308 -13.3125 549.75 C-14.0446875 548.84378906 -14.776875 547.93757812 -15.53125 547.00390625 C-20.02422836 541.5369753 -24.70746063 536.23324209 -29.35351562 530.89648438 C-33.4317253 526.19904477 -37.46772568 521.46516497 -41.51171875 516.73828125 C-43.01672049 514.98047082 -44.52367703 513.22435554 -46.03125 511.46875 C-51.33054426 505.29632987 -56.6089737 499.10738929 -61.85791016 492.89208984 C-67.20478107 486.56575635 -72.60339832 480.28390421 -78 474 C-84.31088314 466.65148932 -90.6080438 459.29259683 -96.85791016 451.89208984 C-102.20478107 445.56575635 -107.60339832 439.28390421 -113 433 C-119.31088314 425.65148932 -125.6080438 418.29259683 -131.85791016 410.89208984 C-137.20478107 404.56575635 -142.60339832 398.28390421 -148 392 C-154.31088314 384.65148932 -160.6080438 377.29259683 -166.85791016 369.89208984 C-171.70396642 364.15831236 -176.59313781 358.46176847 -181.48388672 352.76611328 C-184.48935434 349.26505808 -187.49145815 345.76111655 -190.49316406 342.25683594 C-193.02685208 339.29948748 -195.5634265 336.34470321 -198.10546875 333.39453125 C-202.69606553 328.06164678 -207.25761398 322.71814055 -211.6875 317.25 C-215.24267904 312.86848205 -218.96769537 308.68289319 -222.765625 304.51171875 C-225.78810438 301.11407147 -228.62795111 297.58110491 -231.48828125 294.046875 C-234.41278501 290.49926546 -237.41672407 287.02811472 -240.4375 283.5625 C-246.05411738 277.11857784 -251.56027535 270.59397774 -257 264 C-255.48532946 260.43455466 -253.40186314 258.16486519 -250.66137695 255.45019531 C-249.76316727 254.55536438 -248.86495758 253.66053345 -247.93952942 252.73858643 C-246.95580524 251.76840705 -245.97205519 250.79825391 -244.98828125 249.828125 C-243.97606704 248.82218927 -242.96437162 247.81573125 -241.95317078 246.80877686 C-239.28860986 244.15750978 -236.61854994 241.51185691 -233.94683838 238.86779785 C-229.68790993 234.65197243 -225.43553506 230.42956721 -221.18663597 226.20363617 C-219.71191967 224.73901601 -218.23376654 223.27793471 -216.75520325 221.81719971 C-212.24510923 217.33933325 -207.89977026 212.81529438 -203.76457214 207.99066162 C-200.22345332 203.99582959 -196.38578672 200.28576885 -192.59375 196.53125 C-191.71021851 195.65150513 -190.82668701 194.77176025 -189.91638184 193.86535645 C-186.6402768 190.60343055 -183.3596502 187.34607436 -180.07867432 184.08905029 C-176.85169462 180.8851274 -173.6286192 177.67730884 -170.40625 174.46875 C-169.56751343 173.63831177 -168.72877686 172.80787354 -167.86462402 171.95227051 C-164.29074042 168.39318559 -160.78960147 164.82492467 -157.5 161 C-153.43396577 156.27229216 -149.02283983 151.91651905 -144.59375 147.53125 C-143.71021851 146.65150513 -142.82668701 145.77176025 -141.91638184 144.86535645 C-138.6402768 141.60343055 -135.3596502 138.34607436 -132.07867432 135.08905029 C-128.85169462 131.8851274 -125.6286192 128.67730884 -122.40625 125.46875 C-121.56751343 124.63831177 -120.72877686 123.80787354 -119.86462402 122.95227051 C-116.29074042 119.39318559 -112.78960147 115.82492467 -109.5 112 C-105.43396577 107.27229216 -101.02283983 102.91651905 -96.59375 98.53125 C-95.71021851 97.65150513 -94.82668701 96.77176025 -93.91638184 95.86535645 C-90.6402768 92.60343055 -87.3596502 89.34607436 -84.07867432 86.08905029 C-80.85169462 82.8851274 -77.6286192 79.67730884 -74.40625 76.46875 C-73.56751343 75.63831177 -72.72877686 74.80787354 -71.86462402 73.95227051 C-68.29074042 70.39318559 -64.78960147 66.82492467 -61.5 63 C-57.43396577 58.27229216 -53.02283983 53.91651905 -48.59375 49.53125 C-47.71021851 48.65150513 -46.82668701 47.77176025 -45.91638184 46.86535645 C-42.6402768 43.60343055 -39.3596502 40.34607436 -36.07867432 37.08905029 C-32.85169462 33.8851274 -29.6286192 30.67730884 -26.40625 27.46875 C-25.56751343 26.63831177 -24.72877686 25.80787354 -23.86462402 24.95227051 C-20.30212947 21.40452748 -16.81202663 17.84956318 -13.53710938 14.03320312 C-9.25167453 9.14671889 -4.59579591 4.59579591 0 0 Z " fill="#13BF24" transform="translate(535,61)"/>
<path d="M0 0 C0.62390625 0.46019531 1.2478125 0.92039062 1.890625 1.39453125 C6.54171182 5.02950226 9.74655051 9.49351958 13.10546875 14.31640625 C14.97527093 16.96497139 16.95143856 19.48812754 19 22 C19.54527344 21.29875 20.09054687 20.5975 20.65234375 19.875 C35.81469201 0.79895159 55.29538536 -10.1450101 79.16796875 -14.58984375 C104.08208371 -17.25649214 129.82903326 -15.06342442 150 1 C151.25490234 1.96099609 151.25490234 1.96099609 152.53515625 2.94140625 C168.58288145 16.3441815 175.67249917 38.91265591 178 59 C178.08245185 59.6888947 178.1649037 60.3777894 178.24985409 61.0875597 C179.19025062 69.94660239 179.13358333 78.78527616 179.11352539 87.68041992 C179.11324285 89.4455668 179.11340255 91.21071379 179.1139679 92.9758606 C179.11425327 97.73746448 179.10839871 102.49904287 179.10139394 107.26064086 C179.09511697 112.2480848 179.09455318 117.23552941 179.09336853 122.22297668 C179.09026798 131.65388804 179.08207186 141.08478773 179.07201904 150.51569396 C179.06081818 161.25818564 179.05533746 172.00067789 179.05032361 182.74317396 C179.03988812 204.82879059 179.02155858 226.91439123 179 249 C155.9 249 132.8 249 109 249 C108.97812622 241.15806885 108.97812622 241.15806885 108.95581055 233.15771484 C108.90541959 215.86304081 108.83896513 198.56845586 108.76428509 181.27387047 C108.71940784 170.79066349 108.67997471 160.30748987 108.65356445 149.82421875 C108.63051885 140.68208429 108.59704798 131.54005613 108.55129844 122.39800608 C108.52745444 117.56182404 108.50866803 112.72574668 108.50238609 107.88950729 C108.49629508 103.32746923 108.476152 98.76569874 108.44572449 94.20376015 C108.43700814 92.53905032 108.43320822 90.87430543 108.43499184 89.20957375 C108.44471487 75.93448634 108.32962757 60.79918162 99.421875 50.10546875 C91.65842763 42.35833115 81.52114732 40.63388618 70.9375 40.5 C58.49456622 40.64451875 47.86538983 44.40384115 38.80859375 53.10546875 C29.15320946 63.43655212 28.41036433 72.00603881 28.45410156 85.5234375 C28.44535973 87.30785521 28.43487182 89.09226509 28.42277527 90.87666321 C28.39496936 95.70461056 28.39150939 100.53230144 28.39249516 105.36031723 C28.38936141 110.41190045 28.36373357 115.46336894 28.34051514 120.51489258 C28.29998701 130.07339423 28.2796219 139.63182771 28.26654124 149.19040203 C28.25066042 160.07556851 28.2122402 170.96061916 28.17194796 181.84571838 C28.08959253 204.23046298 28.0384483 226.61513395 28 249 C4.9 249 -18.2 249 -42 249 C-42.0093457 243.64563721 -42.01869141 238.29127441 -42.02832031 232.7746582 C-42.0621121 215.06885315 -42.11747353 197.36316384 -42.18390274 179.65745258 C-42.22364721 168.92422052 -42.25606302 158.1910613 -42.27099609 147.45776367 C-42.28403642 138.09844191 -42.31106178 128.73928072 -42.35461307 119.38004941 C-42.37717434 114.42817268 -42.39291389 109.4764936 -42.39188385 104.52456093 C-42.39113408 99.85494372 -42.40921139 95.18576254 -42.44116783 90.51625824 C-42.449623 88.81081573 -42.45144687 87.10532405 -42.44580269 85.39986992 C-42.40832671 72.32534517 -43.33620613 59.74912884 -52.3515625 49.45703125 C-59.72348222 42.10326897 -69.99246836 40.61575483 -80 40.5 C-93.9814503 40.69048297 -105.12257616 44.94014848 -114.98149109 55.02737904 C-122.36194725 63.70658575 -122.12887877 71.40589939 -122 82.23120117 C-122.00761762 84.05547807 -122.01874614 85.87974314 -122.03309631 87.70397949 C-122.06197513 92.62717039 -122.04208344 97.54907101 -122.0130806 102.47221541 C-121.99111876 107.62789714 -122.01449835 112.78337424 -122.03295898 117.93904114 C-122.06103649 127.68885972 -122.04865052 137.43818524 -122.02153492 147.18798953 C-121.99263393 158.29330229 -122.00913364 169.39840465 -122.02934647 180.50371969 C-122.06989173 203.33602592 -122.04775731 226.16769593 -122 249 C-145.1 249 -168.2 249 -192 249 C-192 163.53 -192 78.06 -192 -10 C-170.55 -10 -149.1 -10 -127 -10 C-124.18373792 -1.55121376 -124.85940329 8.18927255 -125 17 C-124.38125 16.360625 -123.7625 15.72125 -123.125 15.0625 C-122.08791992 14.03700741 -121.04539586 13.01701407 -120 12 C-118.95972656 10.98292969 -118.95972656 10.98292969 -117.8984375 9.9453125 C-87.91610491 -18.27909831 -33.68356363 -26.57657059 0 0 Z " fill="#13BF24" transform="translate(1080,271)"/>
<path d="M0 0 C23.1 0 46.2 0 70 0 C70 121.44 70 242.88 70 368 C49.21 368 28.42 368 7 368 C5.02 355.625 5.02 355.625 3 343 C1.14375 344.959375 -0.7125 346.91875 -2.625 348.9375 C-18.92096863 365.50956594 -39.08315823 372.67086678 -62.125 373.1875 C-84.4851165 372.87301172 -104.73940488 366.61529319 -122 352 C-122.65226562 351.49210937 -123.30453125 350.98421875 -123.9765625 350.4609375 C-144.36338767 333.97278806 -155.16437142 306.01206496 -160 281 C-160.14953125 280.23993652 -160.2990625 279.47987305 -160.453125 278.69677734 C-168.3562269 236.22612092 -165.2171803 184.43946924 -142 147 C-139.13643721 142.88455262 -136.11683031 138.92577864 -133 135 C-132.21625 133.948125 -131.4325 132.89625 -130.625 131.8125 C-114.80923468 114.86703716 -92.10928077 104.5788675 -69.015625 103.71484375 C-45.2256121 103.20867326 -25.73785176 107.78709065 -7 123 C-5.02 124.98 -3.04 126.96 -1 129 C-0.67 86.43 -0.34 43.86 0 0 Z M-76.625 172.5 C-91.1900908 190.27549365 -93.36856269 213.93459645 -93.31567383 235.99121094 C-93.31252125 238.73152788 -93.33602883 241.47075365 -93.36132812 244.2109375 C-93.44184099 266.4829032 -90.22011594 289.60545447 -74.8125 306.8125 C-64.51647185 316.52352655 -52.67884633 317.46637404 -39.359375 317.2734375 C-27.29132136 316.84695975 -17.58090385 312.42903684 -8.96875 304.015625 C-2.07285824 296.47689587 0.60135022 290.79000539 0.56518555 280.63354492 C0.5770137 279.61470718 0.58884186 278.59586945 0.60102844 277.54615784 C0.63382445 274.19070682 0.63687254 270.83606931 0.63671875 267.48046875 C0.64703904 265.13788016 0.65810281 262.79529475 0.6698761 260.45271301 C0.68929262 255.54610881 0.69273523 250.63978956 0.6862793 245.7331543 C0.68028649 239.46173409 0.72450317 233.19179567 0.78216839 226.92068005 C0.81923478 222.08287498 0.82406513 217.24542477 0.81989479 212.4074955 C0.82275862 210.09632592 0.83676876 207.78514109 0.86237144 205.47411156 C1.58259008 190.03706973 1.58259008 190.03706973 -5.13761902 176.76167297 C-5.75220474 176.18032089 -6.36679047 175.59896881 -7 175 C-8.23073935 173.5846994 -9.46009146 172.16819019 -10.6875 170.75 C-20.54797026 161.29160717 -33.02926414 158.58308052 -46.19897461 158.63427734 C-58.14486191 158.90151218 -68.34982285 163.89381576 -76.625 172.5 Z " fill="#13BF24" transform="translate(1899,152)"/>
<path d="M0 0 C17.22267293 14.99292668 24.62982643 36.47778921 26.27740669 58.69557381 C26.61821353 64.47569787 26.65075422 70.24609292 26.66333008 76.03491211 C26.67359479 78.03949088 26.68386164 80.04406965 26.69420922 82.048648 C26.70435051 84.17579469 26.71224733 86.30293934 26.71954155 88.43009758 C26.73518369 92.89187689 26.75912899 97.35358931 26.78443909 101.81532288 C26.85514857 114.49329374 26.91534094 127.17130097 26.96655273 139.84936523 C26.99499626 146.87291331 27.03044218 153.89639274 27.07320648 160.91986853 C27.09971754 165.34079253 27.11778052 169.76163929 27.12924373 174.18262661 C27.14063927 177.59828543 27.16472386 181.01383716 27.18676758 184.42944336 C27.18735672 185.63038635 27.18794586 186.83132935 27.18855286 188.06866455 C27.28506087 199.43695903 28.56817597 210.55579777 31.98974609 221.421875 C32.20244141 222.13601563 32.41513672 222.85015625 32.63427734 223.5859375 C33.46411544 226.31473027 34.27550022 228.90457343 35.64599609 231.4140625 C36.48974609 233.296875 36.48974609 233.296875 36.48974609 239.296875 C13.05974609 239.296875 -10.37025391 239.296875 -34.51025391 239.296875 C-40.13525391 223.546875 -40.13525391 223.546875 -41.51025391 217.296875 C-42.50025391 218.1425 -43.49025391 218.988125 -44.51025391 219.859375 C-45.15994141 220.40980469 -45.80962891 220.96023438 -46.47900391 221.52734375 C-47.75891777 222.64234563 -49.01361424 223.78765133 -50.22900391 224.97265625 C-65.1208408 239.17868486 -85.92475763 244.06073245 -105.94775391 244.546875 C-132.7122968 243.90388298 -156.95810739 235.68776401 -175.96899414 216.44287109 C-190.9298701 200.49775717 -195.30364528 180.01163305 -194.64648438 158.75390625 C-193.49469465 137.98040848 -184.29844983 120.25010281 -169.23681641 106.171875 C-155.80559364 94.74864235 -139.53700735 89.01813847 -122.57275391 85.109375 C-121.90655029 84.95436523 -121.24034668 84.79935547 -120.55395508 84.63964844 C-118.21359869 84.1331184 -115.87000947 83.70425245 -113.51025391 83.296875 C-111.94476807 83.02327148 -111.94476807 83.02327148 -110.34765625 82.74414062 C-96.95342745 80.73509504 -83.52255513 81.07604308 -70.01025391 81.171875 C-67.52978878 81.18192787 -65.0493197 81.19104963 -62.56884766 81.19921875 C-56.5492287 81.22104236 -50.52976029 81.25433602 -44.51025391 81.296875 C-44.59208182 77.17112058 -44.70483696 73.04674326 -44.82275391 68.921875 C-44.8453125 67.76558594 -44.86787109 66.60929687 -44.89111328 65.41796875 C-45.26558182 53.36689044 -47.64347589 42.56854843 -56.69775391 34.046875 C-65.51967589 26.97778031 -76.55548942 25.52561388 -87.51025391 26.296875 C-96.45252711 27.65840821 -105.3161605 30.44147226 -111.39306641 37.4765625 C-115.89130084 43.93055103 -117.39137645 49.46473281 -118.51025391 57.296875 C-141.61025391 57.296875 -164.71025391 57.296875 -188.51025391 57.296875 C-188.51025391 36.92469918 -180.82321378 19.76908895 -166.51025391 5.296875 C-124.21130458 -34.20988726 -44.35656981 -37.18023725 0 0 Z M-114.51025391 134.296875 C-122.15184716 142.67906319 -124.8380163 152.00400977 -124.72900391 163.19140625 C-124.13397763 171.63865423 -120.55557778 178.57643974 -114.44775391 184.421875 C-104.77655676 192.1425786 -93.33318631 192.35289306 -81.51025391 191.296875 C-68.32340216 189.23642941 -55.37410482 182.12001025 -47.39550781 171.32739258 C-43.90218603 165.99214843 -43.72285393 161.59913493 -43.92431641 155.35546875 C-43.93705093 153.84304344 -43.93705093 153.84304344 -43.95004272 152.30006409 C-43.98336912 149.11036887 -44.05860996 145.92329334 -44.13525391 142.734375 C-44.1653803 140.55928155 -44.19275139 138.38414809 -44.21728516 136.20898438 C-44.28309112 130.90406883 -44.38322693 125.60065911 -44.51025391 120.296875 C-82.15113355 118.27458881 -82.15113355 118.27458881 -114.51025391 134.296875 Z " fill="#13BF24" transform="translate(1494.51025390625,280.703125)"/>
<path d="M0 0 C0.73443329 -0.00067474 1.46886658 -0.00134949 2.22555542 -0.00204468 C30.69413411 0.03943719 58.69277756 5.82138732 81.25 24.25 C81.95253906 24.79011719 82.65507813 25.33023437 83.37890625 25.88671875 C96.96846304 36.87005917 105.04686152 53.3445469 108.25 70.25 C108.58 74.87 108.91 79.49 109.25 84.25 C86.15 84.25 63.05 84.25 39.25 84.25 C38.26 79.63 37.27 75.01 36.25 70.25 C32.37679638 61.64288084 27.14994645 56.06392858 18.546875 52.0625 C5.81079456 47.55721984 -8.2272871 48.16883733 -20.59375 53.46875 C-28.10266657 57.53984934 -31.93655245 62.91349499 -35.1875 70.6875 C-36.22636144 77.26695576 -35.89632623 83.95937285 -32.16015625 89.6640625 C-21.01416954 102.19943813 -1.00603526 105.20563487 14.51953125 108.65234375 C46.18394533 115.68914232 82.93536386 125.14034245 101.75 154.1875 C110.58231363 170.28888591 112.33072115 192.68596581 107.34765625 210.27734375 C99.70724108 230.96900192 84.95339835 246.88931307 65.00537109 256.31005859 C29.90042968 272.05907097 -13.58799144 274.44117725 -49.99804688 261.44775391 C-74.44694839 252.06249499 -94.30577739 235.25153174 -105.625 211.5625 C-108.92868884 203.74756709 -110.78948483 196.37811392 -111.328125 187.89453125 C-111.4096582 186.64647705 -111.49119141 185.39842285 -111.57519531 184.11254883 C-111.63288086 183.16790771 -111.69056641 182.2232666 -111.75 181.25 C-103.1619428 181.22687365 -94.57389851 181.20908342 -85.98581791 181.19818783 C-81.998428 181.19295964 -78.01105933 181.18586316 -74.02368164 181.17456055 C-70.17874886 181.16372939 -66.33383655 181.15772268 -62.48888969 181.15512276 C-61.01881017 181.15326892 -59.54873182 181.14964909 -58.07866096 181.14426994 C-56.02645533 181.13705645 -53.97433533 181.13600919 -51.92211914 181.13647461 C-50.75185684 181.134254 -49.58159454 181.13203339 -48.37586975 181.12974548 C-45.75 181.25 -45.75 181.25 -44.75 182.25 C-44.47581878 184.05899998 -44.23120926 185.87250729 -44 187.6875 C-42.49963167 196.84192129 -39.33651021 203.89622799 -31.9609375 209.72265625 C-17.73373372 219.5509896 -0.22959578 221.16345631 16.5 218.125 C24.7630949 216.15671223 32.60303479 212.68514433 37.25 205.25 C37.8275 204.425 38.405 203.6 39 202.75 C41.35259275 196.16274029 41.57163777 188.32107779 38.75 181.8125 C31.27912622 169.58278197 13.68132505 165.36311858 0.6875 162.1875 C-2.4216033 161.44163981 -5.53300784 160.70687644 -8.64648438 159.97949219 C-39.00241171 152.84422544 -73.26541438 143.73072878 -92.75 117.25 C-103.08846012 100.3145358 -106.33627237 81.73595326 -101.75 62.25 C-95.05888026 40.01569549 -80.61345786 24.04065999 -60.4375 13 C-41.56112084 3.08567128 -21.0638356 0.01735537 0 0 Z " fill="#13BF24" transform="translate(734.75,255.75)"/>
<path d="M0 0 C1.32704956 0.00012085 1.32704956 0.00012085 2.6809082 0.00024414 C19.26973285 0.14473285 19.26973285 0.14473285 22.3125 3.1875 C22.41350336 4.65605075 22.44332597 6.1295438 22.4453125 7.6015625 C22.44724609 8.5723877 22.44917969 9.54321289 22.45117188 10.54345703 C22.44666016 11.62224121 22.44214844 12.70102539 22.4375 13.8125 C22.43556641 14.92866699 22.43363281 16.04483398 22.43164062 17.19482422 C22.3497381 34.19642302 21.80499434 51.1938256 21.3125 68.1875 C20.51110596 68.11893799 19.70971191 68.05037598 18.8840332 67.97973633 C-3.03067522 66.18681687 -26.42903513 64.30460212 -44.73828125 78.8125 C-50.72155939 84.34735258 -54.78584465 90.39216418 -55.26577151 98.69526494 C-55.3760646 102.43354139 -55.36856987 106.16701048 -55.34692383 109.90649414 C-55.35538646 111.59254131 -55.36603488 113.27857871 -55.37869263 114.96459961 C-55.40674546 119.51984388 -55.40438399 124.07461575 -55.39639878 128.62992024 C-55.39326602 133.39856813 -55.41833058 138.16706758 -55.44035339 142.93565369 C-55.47775303 151.95582778 -55.48993897 160.97585113 -55.4929778 169.99609512 C-55.49767305 180.26945772 -55.53061137 190.54266972 -55.56587565 200.81596577 C-55.63775543 221.93983043 -55.67059047 243.06351488 -55.6875 264.1875 C-78.7875 264.1875 -101.8875 264.1875 -125.6875 264.1875 C-125.6875 178.7175 -125.6875 93.2475 -125.6875 5.1875 C-103.9075 5.1875 -82.1275 5.1875 -59.6875 5.1875 C-58.85237677 8.52799292 -58.42421943 11.42061649 -58.15234375 14.828125 C-58.06533203 15.89804687 -57.97832031 16.96796875 -57.88867188 18.0703125 C-57.80166016 19.18148438 -57.71464844 20.29265625 -57.625 21.4375 C-57.48868164 23.12746094 -57.48868164 23.12746094 -57.34960938 24.8515625 C-57.12592294 27.62998351 -56.90533364 30.40861501 -56.6875 33.1875 C-56.2637207 32.53289795 -55.83994141 31.8782959 -55.40332031 31.20385742 C-45.23146561 15.70396572 -31.40261078 4.48372708 -13.04296875 0.6328125 C-8.6808167 0.05390059 -4.39601887 -0.00370833 0 0 Z " fill="#13BF24" transform="translate(1697.6875,255.8125)"/>
</svg>
