<svg width="21" height="18" viewBox="0 0 21 18" fill="none" xmlns="http://www.w3.org/2000/svg">
<path d="M14.4195 0C13.0824 0 11.9288 0.786517 11.221 1.97753C12.4007 3.19101 13.1086 4.85393 13.1086 6.76404C13.1086 7.41573 13.03 8 12.8727 8.58427C13.3708 8.83146 13.8689 9.01124 14.4195 9.01124C16.5955 9.01124 18.3521 6.98876 18.3521 4.51685C18.3521 2.04494 16.5955 0.0224719 14.4195 0.0224719V0ZM6.55431 2.24719C4.37828 2.24719 2.62172 4.26966 2.62172 6.74157C2.62172 9.21348 4.37828 11.236 6.55431 11.236C8.73034 11.236 10.4869 9.21348 10.4869 6.74157C10.4869 4.26966 8.73034 2.24719 6.55431 2.24719ZM19.0075 9.34831C17.8801 10.4944 16.3333 11.191 14.5768 11.236C15.2846 12.0899 15.7303 13.1236 15.7303 14.2472V15.7303H20.9738V12C20.9738 10.8315 20.161 9.82022 19.0075 9.32584V9.34831ZM1.96629 11.5955C0.812734 12.0899 0 13.1011 0 14.2697V18H13.1086V14.2697C13.1086 13.1011 12.2959 12.0899 11.1423 11.5955C9.96255 12.7865 8.3633 13.4831 6.55431 13.4831C4.74532 13.4831 3.14607 12.764 1.96629 11.5955Z" fill="currentColor"/>
</svg>
